<svg width="483" height="213" viewBox="0 0 483 213" fill="none" xmlns="http://www.w3.org/2000/svg">
<path d="M413.99 0L356.08 81.77C355.21 83.47 354.19 86.04 353.25 87.61C353.02 88 350.12 90.71 350.02 91.15C349.81 92.07 349.88 93.37 349.99 94.33C351.05 104.06 356.77 120.62 359.67 130.65C365.23 149.92 371.91 168.9 378.01 187.99H380C378.63 176.88 385.6 164.6 395.85 160.17C407.8 155.01 424.61 157.58 432.95 168.05C454.03 194.54 412.06 225.8 388.67 206.33C387.08 205.01 384.75 201.53 383.81 200.86C380.75 198.67 336.41 200.59 328.32 200.02C327.21 199.94 326.13 199.87 325.11 199.38L313.35 125.99C308.93 124.99 307.78 130.02 306.21 133.18C303.04 151.05 300.03 169 296.49 186.8C295.97 189.4 294.32 199.4 293.04 200.68L248.02 206.66C249.45 193.92 253.23 181.39 255.83 168.8C267.05 114.44 276 59.66 284.09 4.73001L328.69 7.32001L317.37 65.63C317.81 66.15 318.19 66.83 319 66.66C321.19 66.2 330.22 48.74 332.11 45.76C338.3 35.95 345.32 25.85 351.78 16.4C354.16 12.92 356.82 5.79999 361 5.32999C367.99 4.52999 375.97 4.72 383.01 4C393.36 2.94 403.68 1.17001 414.01 0.0100098L413.99 0Z" fill="currentColor"/>
<path d="M151.33 2C138.66 48.93 130.02 96.78 122.5 144.83C120.63 156.78 118.37 169.03 116.73 181.06C116.08 185.85 116.3 191.19 115.04 196.03L70.67 201.32C76.01 172.69 82.57 144.14 86.67 115.32C77.47 115.52 68.25 117.05 59.11 117.94L58.44 118.81L43.66 198.65L0 207.32C2.86 190.14 7.15 173.23 10.48 156.14C14.84 133.79 19.23 111.24 23.16 88.82C28.02 61.11 31.28 33.06 36.75 5.41C44.61 5.82 52.46 6.14001 60.35 6.01001C65.8 5.92001 71.46 5.47001 77.02 5.35001C78.42 5.32001 80.78 3.96999 81.27 5.73999L64.82 78.47C64.61 79.81 64.1 83.52 65.71 83.9C74.32 81.83 84.34 83.51 92.32 79.97L106.98 6.63L151.34 1.98999L151.33 2Z" fill="currentColor"/>
<path d="M207.33 6L176.83 152.5C176.77 159.38 174.74 165.46 181.8 169.2C187.35 172.14 190.89 170.11 194.65 165.65C204.03 154.54 209.76 111.76 212.84 95.84C217.74 70.6 222.31 45.37 227.17 20.17C227.64 17.74 227.82 9.99001 229.76 8.76001L271.32 5.98999C267.56 24.36 265.16 43.01 261.79 61.46C257.43 85.33 252.87 110.36 247.68 134.01C242.41 158.01 236.72 180.35 216.66 196.33C186.39 220.45 131.49 216.35 133.99 168.33C134.92 150.45 140.26 132.75 140.69 115.08C140.73 113.35 144.27 104.13 144.63 100.23C146.05 84.56 151.12 66.04 154.49 49.49C156.83 37.98 158.19 24.12 161.39 13.06C161.8 11.62 162.77 9.60001 164.32 9.32001C178.7 8.64001 192.97 6.1 207.33 6Z" fill="currentColor"/>
<path d="M482.66 1.32994C475.62 20.0199 468.55 38.76 461.97 57.63C452.51 84.77 444.03 112.23 435.27 139.6C434.41 140.76 430.66 141.17 428.98 141.31C420.27 142.03 411.31 140.41 402.66 141.99L433.67 7.99996C434.46 6.69996 438.73 6.36995 440.42 6.08995C446.96 4.99995 453.67 4.71997 460.25 3.91997C463.2 3.55997 481.58 0.309944 482.66 1.32994Z" fill="currentColor"/>
</svg>
