<?xml version="1.0" encoding="UTF-8"?>
<svg id="_레이어_1" xmlns="http://www.w3.org/2000/svg" version="1.1" viewBox="0 0 711 343">
  <!-- Generator: Adobe Illustrator 30.0.0, SVG Export Plug-In . SVG Version: 2.1.1 Build 123)  -->
  <path d="M229.99,13.09c-19.85,97.46-39.67,195.13-51.43,294.06l-66.56,16.93-22.99-156.99-25.5,150-61.51,14.98C21.91,228.58,41.3,124.8,53.99,20.07c22,1.39,43.95.82,65.91-.9l28.08,152.89,27.54-150.97,3-2,51.47-6.02v.02Z"/>
  <path d="M597.99,15.1l-71.41,113.08-14.52,26.47c-.25,2.91-.14,5.79.2,8.69,1.76,15.19,9.74,39.42,13.82,55.18,8.91,34.37,19.08,68.48,28.92,102.57l-80.56-1.93-15.43-111.55c-5.54-1.47-8.38,9.93-9.52,14.48-5.57,22.19-7.69,47.45-11.78,70.22-.76,4.21-4.83,28.5-6.17,29.83l-63.53,9.96c18.42-103.35,37.78-206.56,49.47-311.05l64.49,5.09-15.47,89.96c1.57-1.47,3.05-2.92,4.33-4.67,16.07-22.12,30.19-54.61,45.37-78.63,3.78-5.98,4.8-9.46,12.42-10.58,9.48-1.4,20.2-1,29.88-2.12,5.05-.59,37.99-6.28,39.5-4.99h0Z"/>
  <path d="M266,259.09l-15.96,61.54-66.04,7.45L263.89,28.69c21.46-2.24,43.14-3.19,64.6-5.61,11.4-1.28,32.05-6.47,42.01-6.03,1.52.07,2.9-.66,2.54,1.55l-12.03,301.5-67,9.99,6.99-71h-35,0ZM303.95,213.05l9.04-137.96-5.3,2.22-31.7,136.28c-.1,1.62-.2,1.67,1.45,1.45,9.13-1.22,17.54-.5,26.52-1.99h-.01Z"/>
  <polygon points="704 4.1 634.52 231.11 583 234.08 627.48 15.07 704 4.1"/>
  <path d="M591.78,256.37c55.91-6.74,66.08,64.2,17.48,80.48-62.83,21.05-74.28-73.64-17.48-80.48Z"/>
</svg>
