<?xml version="1.0" encoding="UTF-8"?>
<svg id="_레이어_1" data-name="레이어_1" xmlns="http://www.w3.org/2000/svg" version="1.1" viewBox="0 0 487.98 124.59">
  <!-- Generator: Adobe Illustrator 30.0.0, SVG Export Plug-In . SVG Version: 2.1.1 Build 123)  -->
  <path d="M220.15,105.15l11.01-23.19c4.65,7.8,14.91,16.38,24.4,11.32,6.7-3.57,6.29-9.67,2.05-15.17-7.61-9.86-23.7-15.19-28.22-27.68-4.64-12.84,4.23-26.98,14.01-34.73,20.02-15.84,61.12-18.97,51.89,17.54l-22.21,6.49c2.73-9.31-2.15-19.63-11.9-11-14.85,13.14,11.81,21.94,18.09,29.49,8.6,10.34,9.23,26.67,4.37,38.76-10.06,24.99-45.1,33.15-62.6,11.15l1.49,8.32-32.11-.59c-1.67-12.95-3.26-26-5.43-38.88-.1-.57-.44-3.83-1.69-2.75l-2.23,4.61-6.99,37.61-25.28,4.16L168.08,5.21c.48-.71,1.61-.61,2.39-.58,5.12.22,10.9,1.36,16.09,1.8,1.65.14,6.38-.51,7.18.58l-5.4,32.72c6.67-9,11.55-19.3,17.9-28.49,1.54-2.23,2.99-5.52,5.93-5.97,7.42-1.13,15.71-.46,23.17-2.4l5.03.28c-9.56,14.03-20.56,28.12-29.38,42.57-.96,1.56-4.88,8.02-5.09,9.21-.61,3.55,4.9,21.09,6.23,25.83,1.78,6.33,4.28,17.38,6.82,22.92.27.59.36,1.4,1.2,1.46Z"/>
  <path d="M73.27,111.68l-26.75,5.95c-1.74-14.55-3.67-29.15-6.05-43.61-.6-3.68-1.1-8.66-2.19-12.08-.25-.79-.2-1.81-1.27-1.99l-9.82,55.3-24.08,5.95L24,4.73l26.02-.61,11.35,56.43,11-55.91,20.49-2.73,1.21.65c-8.93,35.88-16.17,72.39-20.8,109.12Z"/>
  <path d="M481.02,9.02c.57.5,2.24,2.78,2.7,3.54,9.67,15.87-3.26,38.64-15.89,49.16-1.75,1.46-5.09,2.21-5.09,4.46l17.05,43.73-25.31,8.91-11.9-46.04c.07-.58-1.25-.44-1.48-.34-1.94.86-6.38,36.93-7.71,41.64l-25.89,6.52,19.09-110.25c1.14-1.78,10.38-3.33,12.9-3.75,10.02-1.69,33.7-4.56,41.55,2.41ZM444.95,51.63c10.37-1.19,37.18-24.56,12.18-25.56-2.85-.11-5.21.55-7.99.62l-4.19,24.94Z"/>
  <path d="M367.64,93.26l-6.53,22.91-26.19,2.95,31.85-110.87,1.77-1.2c13.57.04,27.02-1.84,40.42-3.61l-3.35,112.04-.9.89-25.79,3.36,1.79-26.47h-13.08ZM371.2,76.61h11.3l4.17-50.84-2.45.05c-4.84,16.77-7.93,34.15-13.02,50.79Z"/>
  <path d="M108.66,93.26l-6.91,23.12-26.1,2.74L106.85,8.2l42.23-4.76c1.24-.11.78.08.9.9.56,3.72-.49,7.75-.62,11.29-.91,24.01-2.08,48.02-2.97,71.96-.35,9.28-.19,18.61-.65,27.89l-.89.89-25.78,3.65,2.38-26.76h-12.79ZM111.93,76.61h10.41l4.47-50.84-2.05-.34-12.83,51.18Z"/>
  <path d="M358.71,4.65l-4.89,22.46-13.74,1.89-.57.75-13.52,86.67-28.51,4.19,16.02-90.74-.22-.86-14.62-1.16,1.19-21.41c19.56,1.5,39.38.4,58.87-1.78Z"/>
</svg>